<?xml version="1.0" encoding="utf-8"?>
<!-- Generator: Adobe Illustrator 22.1.0, SVG Export Plug-In . SVG Version: 6.00 Build 0)  -->
<svg version="1.1" id="Слой_1" xmlns="http://www.w3.org/2000/svg" xmlns:xlink="http://www.w3.org/1999/xlink" x="0px" y="0px"
	 viewBox="0 0 135 135" style="enable-background:new 0 0 135 135;" xml:space="preserve">
<style type="text/css">
	.st0{display:none;}
	.st1{fill:#B2B2B2;}
</style>
<rect class="st0" width="135" height="135"/>
<path class="st1" d="M67.5,113L67.5,113c-3.6,0-6.5-2.9-6.5-6.5V29.6c0-3.6,2.9-6.5,6.5-6.5h0c3.6,0,6.5,2.9,6.5,6.5v76.9
	C74,110,71.1,113,67.5,113z"/>
<path class="st1" d="M37,72.2L37,72.2c-3.6,0-6.5-2.9-6.5-6.5V28.2c0-3.6,2.9-6.5,6.5-6.5h0c3.6,0,6.5,2.9,6.5,6.5v37.5
	C43.5,69.3,40.6,72.2,37,72.2z"/>
<path class="st1" d="M98,113.3L98,113.3c-3.6,0-6.5-2.9-6.5-6.5v-28c0-3.6,2.9-6.5,6.5-6.5h0c3.6,0,6.5,2.9,6.5,6.5v28
	C104.5,110.4,101.6,113.3,98,113.3z"/>
</svg>
