<?xml version="1.0" encoding="utf-8"?>
<!-- Generator: Adobe Illustrator 22.1.0, SVG Export Plug-In . SVG Version: 6.00 Build 0)  -->
<svg version="1.1" id="Слой_1" xmlns="http://www.w3.org/2000/svg" xmlns:xlink="http://www.w3.org/1999/xlink" x="0px" y="0px"
	 viewBox="0 0 135 135" style="enable-background:new 0 0 135 135;" xml:space="preserve">
<style type="text/css">
	.st0{opacity:0.35;}
	.st1{fill:#FFFFFF;}
</style>
<g>
	<g class="st0">
		<circle cx="106.3" cy="32.3" r="9.7"/>
	</g>
	<g>
		<circle class="st1" cx="106" cy="32" r="9.7"/>
	</g>
</g>
<g>
	<g class="st0">
		<path d="M40.4,100.4L40.4,100.4c-1.3,0-2.4-1.1-2.4-2.4V54.2c0-1.3,1.1-2.4,2.4-2.4h0c1.3,0,2.4,1.1,2.4,2.4V98
			C42.8,99.3,41.7,100.4,40.4,100.4z"/>
	</g>
	<g>
		<path class="st1" d="M40.1,100.1L40.1,100.1c-1.3,0-2.4-1.1-2.4-2.4V53.9c0-1.3,1.1-2.4,2.4-2.4h0c1.3,0,2.4,1.1,2.4,2.4v43.8
			C42.5,99,41.4,100.1,40.1,100.1z"/>
	</g>
</g>
<g>
	<g class="st0">
		<path d="M49.1,90.4L49.1,90.4c-1.3,0-2.4-1.1-2.4-2.4V64.2c0-1.3,1.1-2.4,2.4-2.4h0c1.3,0,2.4,1.1,2.4,2.4V88
			C51.6,89.3,50.5,90.4,49.1,90.4z"/>
	</g>
	<g>
		<path class="st1" d="M48.8,90.1L48.8,90.1c-1.3,0-2.4-1.1-2.4-2.4V63.9c0-1.3,1.1-2.4,2.4-2.4h0c1.3,0,2.4,1.1,2.4,2.4v23.7
			C51.3,89,50.2,90.1,48.8,90.1z"/>
	</g>
</g>
<g>
	<g class="st0">
		<path d="M67.4,91.1L67.4,91.1C66,91.1,65,90,65,88.7V64.9c0-1.3,1.1-2.4,2.4-2.4h0c1.3,0,2.4,1.1,2.4,2.4v23.7
			C69.8,90,68.7,91.1,67.4,91.1z"/>
	</g>
	<g>
		<path class="st1" d="M67.1,90.8L67.1,90.8c-1.3,0-2.4-1.1-2.4-2.4V64.6c0-1.3,1.1-2.4,2.4-2.4h0c1.3,0,2.4,1.1,2.4,2.4v23.7
			C69.5,89.7,68.4,90.8,67.1,90.8z"/>
	</g>
</g>
<g>
	<g class="st0">
		<path d="M76.5,85.3L76.5,85.3c-1.3,0-2.4-1.1-2.4-2.4V70.7c0-1.3,1.1-2.4,2.4-2.4h0c1.3,0,2.4,1.1,2.4,2.4v12.2
			C78.9,84.2,77.8,85.3,76.5,85.3z"/>
	</g>
	<g>
		<path class="st1" d="M76.2,85L76.2,85c-1.3,0-2.4-1.1-2.4-2.4V70.4c0-1.3,1.1-2.4,2.4-2.4l0,0c1.3,0,2.4,1.1,2.4,2.4v12.2
			C78.6,83.9,77.5,85,76.2,85z"/>
	</g>
</g>
<g>
	<g class="st0">
		<path d="M85.5,95.5L85.5,95.5c-1.3,0-2.4-1.1-2.4-2.4V60.5c0-1.3,1.1-2.4,2.4-2.4l0,0c1.3,0,2.4,1.1,2.4,2.4v32.6
			C88,94.4,86.9,95.5,85.5,95.5z"/>
	</g>
	<g>
		<path class="st1" d="M85.2,95.2L85.2,95.2c-1.3,0-2.4-1.1-2.4-2.4V60.2c0-1.3,1.1-2.4,2.4-2.4h0c1.3,0,2.4,1.1,2.4,2.4v32.6
			C87.7,94.1,86.6,95.2,85.2,95.2z"/>
	</g>
</g>
<g>
	<g class="st0">
		<path d="M94.6,89.9L94.6,89.9c-1.3,0-2.4-1.1-2.4-2.4V66.1c0-1.3,1.1-2.4,2.4-2.4l0,0c1.3,0,2.4,1.1,2.4,2.4v21.4
			C97,88.9,95.9,89.9,94.6,89.9z"/>
	</g>
	<g>
		<path class="st1" d="M94.3,89.6L94.3,89.6c-1.3,0-2.4-1.1-2.4-2.4V65.8c0-1.3,1.1-2.4,2.4-2.4h0c1.3,0,2.4,1.1,2.4,2.4v21.4
			C96.7,88.6,95.6,89.6,94.3,89.6z"/>
	</g>
</g>
<g>
	<g class="st0">
		<path d="M103.8,82.9L103.8,82.9c-1.3,0-2.4-1.1-2.4-2.4v-7.4c0-1.3,1.1-2.4,2.4-2.4l0,0c1.3,0,2.4,1.1,2.4,2.4v7.4
			C106.3,81.8,105.2,82.9,103.8,82.9z"/>
	</g>
	<g>
		<path class="st1" d="M103.5,82.6L103.5,82.6c-1.3,0-2.4-1.1-2.4-2.4v-7.4c0-1.3,1.1-2.4,2.4-2.4h0c1.3,0,2.4,1.1,2.4,2.4v7.4
			C106,81.5,104.9,82.6,103.5,82.6z"/>
	</g>
</g>
<g>
	<g class="st0">
		<path d="M21.8,91.1L21.8,91.1c-1.3,0-2.4-1.1-2.4-2.4V64.9c0-1.3,1.1-2.4,2.4-2.4h0c1.3,0,2.4,1.1,2.4,2.4v23.7
			C24.2,90,23.1,91.1,21.8,91.1z"/>
	</g>
	<g>
		<path class="st1" d="M21.5,90.8L21.5,90.8c-1.3,0-2.4-1.1-2.4-2.4V64.6c0-1.3,1.1-2.4,2.4-2.4h0c1.3,0,2.4,1.1,2.4,2.4v23.7
			C23.9,89.7,22.8,90.8,21.5,90.8z"/>
	</g>
</g>
<g>
	<g class="st0">
		<path d="M31,85.3L31,85.3c-1.3,0-2.4-1.1-2.4-2.4V70.7c0-1.3,1.1-2.4,2.4-2.4h0c1.3,0,2.4,1.1,2.4,2.4v12.2
			C33.4,84.2,32.3,85.3,31,85.3z"/>
	</g>
	<g>
		<path class="st1" d="M30.7,85L30.7,85c-1.3,0-2.4-1.1-2.4-2.4V70.4c0-1.3,1.1-2.4,2.4-2.4h0c1.3,0,2.4,1.1,2.4,2.4v12.2
			C33.1,83.9,32,85,30.7,85z"/>
	</g>
</g>
<g>
	<g class="st0">
		<path d="M57.4,111.6L57.4,111.6c-1.3,0-2.4-1.1-2.4-2.4V44.5c0-1.3,1.1-2.4,2.4-2.4h0c1.3,0,2.4,1.1,2.4,2.4v64.7
			C59.9,110.5,58.8,111.6,57.4,111.6z"/>
	</g>
	<g>
		<path class="st1" d="M57.1,111.3L57.1,111.3c-1.3,0-2.4-1.1-2.4-2.4V44.2c0-1.3,1.1-2.4,2.4-2.4h0c1.3,0,2.4,1.1,2.4,2.4v64.7
			C59.6,110.2,58.5,111.3,57.1,111.3z"/>
	</g>
</g>
</svg>
