<?xml version="1.0" encoding="utf-8"?>
<!-- Generator: Adobe Illustrator 22.1.0, SVG Export Plug-In . SVG Version: 6.00 Build 0)  -->
<svg version="1.1" id="Слой_1" xmlns="http://www.w3.org/2000/svg" xmlns:xlink="http://www.w3.org/1999/xlink" x="0px" y="0px"
	 viewBox="0 0 135 135" style="enable-background:new 0 0 135 135;" xml:space="preserve">
<style type="text/css">
	.st0{fill:#FFFFFF;}
</style>
<path class="st0" d="M64.3,89.9L25.6,51.2c-1.7-1.7-1.7-4.4,0-6.1l0,0c1.7-1.7,4.4-1.7,6.1,0l38.7,38.7c1.7,1.7,1.7,4.4,0,6.1l0,0
	C68.7,91.6,66,91.6,64.3,89.9z"/>
<path class="st0" d="M64.6,83.8l38.7-38.7c1.7-1.7,4.4-1.7,6.1,0l0,0c1.7,1.7,1.7,4.4,0,6.1L70.7,89.9c-1.7,1.7-4.4,1.7-6.1,0l0,0
	C62.9,88.2,62.9,85.5,64.6,83.8z"/>
</svg>
