<?xml version="1.0" encoding="utf-8"?>
<!-- Generator: Adobe Illustrator 22.1.0, SVG Export Plug-In . SVG Version: 6.00 Build 0)  -->
<svg version="1.1" id="Слой_1" xmlns="http://www.w3.org/2000/svg" xmlns:xlink="http://www.w3.org/1999/xlink" x="0px" y="0px"
	 viewBox="0 0 270 135" style="enable-background:new 0 0 270 135;" xml:space="preserve">
<style type="text/css">
	.st0{fill:white;}
	.st1{font-family:'TrebuchetMS-Bold';}
	.st2{font-size:37.5323px;}
	.st3{display:none;opacity:0.5;}
	.st4{display:inline;}
	.st5{display:none;opacity:0.1;}
	.st6{display:none;opacity:0.3;}
	.st7{display:none;opacity:0.2;}
</style>
<text transform="matrix(1 0 0 1 46.8062 76.9502)" class="st0 st1 st2">one location</text>
<g id="Outline">
	<g class="st3">
		<path class="st4" d="M23.5,45.7C12.2,45.7,3,54.9,3,66.2c0,15.4,20.5,38.1,20.5,38.1s20.5-22.7,20.5-38.1
			C44,54.9,34.8,45.7,23.5,45.7z M8.9,66.2c0-8.1,6.5-14.7,14.7-14.7s14.7,6.5,14.7,14.7c0,8.4-8.4,21-14.7,28.9
			C17.4,87.3,8.9,74.5,8.9,66.2z"/>
	</g>
	<g>
		<g>
			<g>
				<path class="st0" d="M24,45.6c-11.3,0-20.5,9.2-20.5,20.5c0,15.4,20.5,38.1,20.5,38.1s20.5-22.7,20.5-38.1
					C44.5,54.7,35.3,45.6,24,45.6z M9.3,66.1c0-8.1,6.5-14.7,14.7-14.7s14.7,6.5,14.7,14.7c0,8.4-8.4,21-14.7,28.9
					C17.9,87.2,9.3,74.4,9.3,66.1z"/>
			</g>
		</g>
	</g>
</g>
<g>
	<g class="st5">
		<path class="st4" d="M12.7,75.1L12.7,75.1c-0.5-1.1-0.2-2.6,0.8-3.2L32,59.3c0.9-0.6,2.2-0.2,2.7,0.9l0,0c0.5,1.1,0.2,2.6-0.8,3.2
			L15.4,76C14.5,76.6,13.3,76.2,12.7,75.1z"/>
		<path class="st4" d="M12.9,75L12.9,75c-0.5-1.1-0.2-2.6,0.8-3.2l18.6-12.6c0.9-0.6,2.2-0.2,2.7,0.9l0,0c0.5,1.1,0.2,2.6-0.8,3.2
			L15.6,75.8C14.6,76.5,13.4,76.1,12.9,75z"/>
	</g>
	<g>
		<g class="st6">
			<path class="st4" d="M12.9,75L12.9,75c-0.5-1.1-0.2-2.6,0.8-3.2l18.6-12.6c0.9-0.6,2.2-0.2,2.7,0.9l0,0c0.5,1.1,0.2,2.6-0.8,3.2
				L15.6,75.8C14.6,76.5,13.4,76.1,12.9,75z"/>
		</g>
		<g>
			<path class="st0" d="M13,74.8L13,74.8c-0.5-1.1-0.2-2.6,0.8-3.2l18.6-12.6c0.9-0.6,2.2-0.2,2.7,0.9l0,0c0.5,1.1,0.2,2.6-0.8,3.2
				L15.7,75.7C14.8,76.4,13.6,75.9,13,74.8z"/>
		</g>
	</g>
</g>
<g>
	<g class="st7">
		<path d="M15.4,64.9L15.4,64.9c0-1.6,1.3-3,3-3h23.2c1.6,0,3,1.3,3,3l0,0c0,1.6-1.3,3-3,3H18.4C16.8,67.9,15.4,66.5,15.4,64.9z"/>
		<path d="M15.7,64.6L15.7,64.6c0-1.6,1.3-3,3-3h23.2c1.6,0,3,1.3,3,3l0,0c0,1.6-1.3,3-3,3H18.7C17,67.6,15.7,66.3,15.7,64.6z"/>
	</g>
	<g>
		<g class="st6">
			<path class="st4" d="M12.4,61.1L12.4,61.1c0-1.3,1.1-2.3,2.3-2.3h18.1c1.3,0,2.3,1.1,2.3,2.3l0,0c0,1.3-1.1,2.3-2.3,2.3H14.7
				C13.4,63.4,12.4,62.4,12.4,61.1z"/>
		</g>
		<g>
			<path class="st0" d="M12.6,61L12.6,61c0-1.3,1.1-2.3,2.3-2.3H33c1.3,0,2.3,1.1,2.3,2.3l0,0c0,1.3-1.1,2.3-2.3,2.3H14.9
				C13.6,63.3,12.6,62.3,12.6,61z"/>
		</g>
	</g>
</g>
<g>
	<g class="st7">
		<path class="st4" d="M12,74.4L12,74.4c0-1.3,1.1-2.3,2.3-2.3h18.1c1.3,0,2.3,1.1,2.3,2.3l0,0c0,1.3-1.1,2.3-2.3,2.3H14.3
			C13,76.7,12,75.7,12,74.4z"/>
		<path class="st4" d="M12.1,74.2L12.1,74.2c0-1.3,1.1-2.3,2.3-2.3h18.1c1.3,0,2.3,1.1,2.3,2.3l0,0c0,1.3-1.1,2.3-2.3,2.3H14.4
			C13.1,76.5,12.1,75.5,12.1,74.2z"/>
		<path class="st4" d="M12.1,74.2L12.1,74.2c0-1.3,1.1-2.3,2.3-2.3h18.1c1.3,0,2.3,1.1,2.3,2.3l0,0c0,1.3-1.1,2.3-2.3,2.3H14.4
			C13.1,76.5,12.1,75.5,12.1,74.2z"/>
		<path class="st4" d="M12.3,74.1L12.3,74.1c0-1.3,1.1-2.3,2.3-2.3h18.1c1.3,0,2.3,1.1,2.3,2.3l0,0c0,1.3-1.1,2.3-2.3,2.3H14.6
			C13.3,76.4,12.3,75.4,12.3,74.1z"/>
	</g>
	<g>
		<g class="st6">
			<path class="st4" d="M12.3,74.2L12.3,74.2c0-1.3,1.1-2.3,2.3-2.3h18.1c1.3,0,2.3,1.1,2.3,2.3l0,0c0,1.3-1.1,2.3-2.3,2.3H14.6
				C13.3,76.5,12.3,75.5,12.3,74.2z"/>
			<path class="st4" d="M12.4,74.1L12.4,74.1c0-1.3,1.1-2.3,2.3-2.3h18.1c1.3,0,2.3,1.1,2.3,2.3l0,0c0,1.3-1.1,2.3-2.3,2.3H14.7
				C13.4,76.4,12.4,75.4,12.4,74.1z"/>
		</g>
		<g>
			<g class="st6">
				<path class="st4" d="M12.4,74.1L12.4,74.1c0-1.3,1.1-2.3,2.3-2.3h18.1c1.3,0,2.3,1.1,2.3,2.3l0,0c0,1.3-1.1,2.3-2.3,2.3H14.7
					C13.4,76.4,12.4,75.4,12.4,74.1z"/>
			</g>
			<g>
				<path class="st0" d="M12.6,73.9L12.6,73.9c0-1.3,1.1-2.3,2.3-2.3H33c1.3,0,2.3,1.1,2.3,2.3l0,0c0,1.3-1.1,2.3-2.3,2.3H14.9
					C13.6,76.2,12.6,75.2,12.6,73.9z"/>
			</g>
		</g>
	</g>
</g>
</svg>
